<svg xmlns="http://www.w3.org/2000/svg" xmlns:xlink="http://www.w3.org/1999/xlink" width="1280" zoomAndPan="magnify" viewBox="0 0 960 540.000001" height="720" preserveAspectRatio="xMidYMid meet" version="1.0"><defs><g/><clipPath id="6ce400647a"><path d="M 170 147 L 237.976562 147 L 237.976562 201 L 170 201 Z M 170 147 " clip-rule="nonzero"/></clipPath><clipPath id="82f5bbf05d"><path d="M 119.347656 184.074219 L 210.679688 184.074219 L 210.679688 275.40625 L 119.347656 275.40625 Z M 119.347656 184.074219 " clip-rule="nonzero"/></clipPath><clipPath id="31d58ffab7"><path d="M 711 64 L 834.902344 64 L 834.902344 162 L 711 162 Z M 711 64 " clip-rule="nonzero"/></clipPath><clipPath id="f78857d056"><path d="M 838 100 L 912.722656 100 L 912.722656 160 L 838 160 Z M 838 100 " clip-rule="nonzero"/></clipPath><clipPath id="08337cad35"><path d="M 787.652344 183.175781 L 878.984375 183.175781 L 878.984375 274.507812 L 787.652344 274.507812 Z M 787.652344 183.175781 " clip-rule="nonzero"/></clipPath></defs><g fill="#006837" fill-opacity="1"><g transform="translate(401.796788, 439.49975)"><g><path d="M 155.40625 -89.015625 C 155.40625 -84.390625 157.210938 -80.71875 160.828125 -78 C 164.453125 -75.289062 168.984375 -73.9375 174.421875 -73.9375 C 182.066406 -73.9375 188.503906 -75.742188 193.734375 -79.359375 L 193.734375 -151.484375 L 92.640625 -151.484375 C 96.054688 -147.265625 98.671875 -142.4375 100.484375 -137 C 102.296875 -131.570312 103.203125 -126.242188 103.203125 -121.015625 C 103.203125 -106.929688 99.726562 -95.5625 92.78125 -86.90625 C 85.84375 -78.257812 76.945312 -72.125 66.09375 -68.5 C 71.71875 -59.25 80.210938 -51.90625 91.578125 -46.46875 C 102.953125 -41.039062 116.179688 -37.625 131.265625 -36.21875 C 132.273438 -32.59375 132.78125 -28.769531 132.78125 -24.75 C 132.78125 -16.300781 130.3125 -9.5625 125.375 -4.53125 C 120.445312 0.5 112.957031 3.015625 102.90625 3.015625 C 93.445312 3.015625 84.644531 1.359375 76.5 -1.953125 C 68.351562 -5.273438 60.957031 -9.851562 54.3125 -15.6875 C 47.675781 -21.519531 41.84375 -28.410156 36.8125 -36.359375 C 31.78125 -44.304688 27.65625 -52.804688 24.4375 -61.859375 C 18.8125 -62.460938 14.085938 -64.375 10.265625 -67.59375 C 6.441406 -70.8125 4.53125 -76.242188 4.53125 -83.890625 C 4.53125 -88.316406 5.28125 -92.289062 6.78125 -95.8125 C 8.289062 -99.332031 10.054688 -102.195312 12.078125 -104.40625 C 14.285156 -104.007812 16.644531 -103.609375 19.15625 -103.203125 C 21.675781 -102.796875 24.546875 -102.59375 27.765625 -102.59375 C 36.210938 -102.59375 42.445312 -105.003906 46.46875 -109.828125 C 50.488281 -114.660156 52.5 -120.296875 52.5 -126.734375 C 52.5 -131.566406 51.644531 -136.195312 49.9375 -140.625 C 48.226562 -145.050781 45.863281 -148.671875 42.84375 -151.484375 L 1.515625 -151.484375 C -3.515625 -151.484375 -7.035156 -153.039062 -9.046875 -156.15625 C -11.066406 -159.28125 -12.078125 -163.859375 -12.078125 -169.890625 C -12.078125 -172.304688 -11.773438 -175.320312 -11.171875 -178.9375 C -10.566406 -182.5625 -9.757812 -185.28125 -8.75 -187.09375 L 260.421875 -187.09375 C 265.253906 -187.09375 268.722656 -185.582031 270.828125 -182.5625 C 272.941406 -179.550781 274 -175.128906 274 -169.296875 C 274 -166.679688 273.644531 -163.507812 272.9375 -159.78125 C 272.238281 -156.0625 271.382812 -153.296875 270.375 -151.484375 L 243.21875 -151.484375 L 243.21875 0.296875 C 241.613281 0.898438 238.394531 1.503906 233.5625 2.109375 C 228.738281 2.710938 224.3125 3.015625 220.28125 3.015625 C 211.4375 3.015625 204.800781 1.660156 200.375 -1.046875 C 195.945312 -3.765625 193.734375 -9.648438 193.734375 -18.703125 L 193.734375 -44.359375 C 189.910156 -42.753906 185.734375 -41.597656 181.203125 -40.890625 C 176.679688 -40.179688 171.601562 -39.828125 165.96875 -39.828125 C 158.925781 -39.828125 152.085938 -40.882812 145.453125 -43 C 138.816406 -45.113281 132.878906 -48.332031 127.640625 -52.65625 C 122.410156 -56.976562 118.238281 -62.304688 115.125 -68.640625 C 112.007812 -74.984375 110.453125 -82.378906 110.453125 -90.828125 C 110.453125 -98.671875 111.707031 -105.609375 114.21875 -111.640625 C 116.726562 -117.679688 120.144531 -122.765625 124.46875 -126.890625 C 128.800781 -131.015625 133.929688 -134.082031 139.859375 -136.09375 C 145.796875 -138.101562 152.085938 -139.109375 158.734375 -139.109375 C 167.785156 -139.109375 174.519531 -137.195312 178.9375 -133.375 C 183.363281 -129.550781 185.578125 -124.722656 185.578125 -118.890625 C 185.578125 -115.878906 185.070312 -112.960938 184.0625 -110.140625 C 183.0625 -107.328125 181.554688 -104.914062 179.546875 -102.90625 C 177.128906 -103.707031 174.515625 -104.109375 171.703125 -104.109375 C 167.078125 -104.109375 163.203125 -102.847656 160.078125 -100.328125 C 156.960938 -97.816406 155.40625 -94.046875 155.40625 -89.015625 Z M 155.40625 -89.015625 "/></g></g></g><g fill="#006837" fill-opacity="1"><g transform="translate(665.219847, 439.49975)"><g><path d="M -66.6875 -181.65625 C -69.90625 -187.695312 -74.226562 -193.429688 -79.65625 -198.859375 C -85.09375 -204.296875 -90.925781 -209.175781 -97.15625 -213.5 C -103.394531 -217.820312 -109.785156 -221.539062 -116.328125 -224.65625 C -122.867188 -227.78125 -128.753906 -230.046875 -133.984375 -231.453125 C -134.179688 -232.460938 -134.28125 -233.46875 -134.28125 -234.46875 C -134.28125 -235.476562 -134.28125 -236.484375 -134.28125 -237.484375 C -134.28125 -241.515625 -133.726562 -245.390625 -132.625 -249.109375 C -131.519531 -252.828125 -129.8125 -256.144531 -127.5 -259.0625 C -125.1875 -261.976562 -122.316406 -264.289062 -118.890625 -266 C -115.472656 -267.71875 -111.347656 -268.578125 -106.515625 -268.578125 C -98.066406 -268.578125 -89.769531 -265.957031 -81.625 -260.71875 C -73.476562 -255.488281 -65.832031 -248.75 -58.6875 -240.5 C -51.550781 -232.257812 -45.113281 -222.957031 -39.375 -212.59375 C -33.644531 -202.226562 -29.070312 -191.914062 -25.65625 -181.65625 Z M -66.6875 -181.65625 "/></g></g></g><g fill="#e79f33" fill-opacity="1"><g transform="translate(6.604513, 441.454404)"><g><path d="M 59.453125 -205.875 C 61.941406 -206.320312 65.90625 -206.941406 71.34375 -207.734375 C 76.78125 -208.523438 81.988281 -208.921875 86.96875 -208.921875 C 92.175781 -208.921875 96.757812 -208.523438 100.71875 -207.734375 C 104.6875 -206.941406 108.03125 -205.523438 110.75 -203.484375 C 113.46875 -201.453125 115.503906 -198.625 116.859375 -195 C 118.222656 -191.375 118.90625 -186.617188 118.90625 -180.734375 L 118.90625 -55.03125 C 118.90625 -34.875 113.128906 -19.753906 101.578125 -9.671875 C 90.023438 0.398438 73.039062 5.4375 50.625 5.4375 C 38.84375 5.4375 29.328125 3.625 22.078125 0 C 16.867188 -2.488281 13.078125 -5.882812 10.703125 -10.1875 C 8.328125 -14.488281 7.140625 -19.359375 7.140625 -24.796875 C 7.140625 -29.328125 7.757812 -33.289062 9 -36.6875 C 10.25 -40.082031 11.78125 -42.800781 13.59375 -44.84375 C 17.894531 -43.9375 21.570312 -43.3125 24.625 -42.96875 C 27.6875 -42.632812 31.03125 -42.46875 34.65625 -42.46875 C 43.488281 -42.46875 49.828125 -44.675781 53.671875 -49.09375 C 57.523438 -53.507812 59.453125 -60.019531 59.453125 -68.625 Z M 59.453125 -205.875 "/></g></g></g><g fill="#e79f33" fill-opacity="1"><g transform="translate(117.692698, 441.454404)"><g><path d="M 16.3125 -210.96875 C 16.3125 -219.570312 19.195312 -226.816406 24.96875 -232.703125 C 30.738281 -238.597656 38.382812 -241.546875 47.90625 -241.546875 C 57.414062 -241.546875 65.054688 -238.597656 70.828125 -232.703125 C 76.609375 -226.816406 79.5 -219.570312 79.5 -210.96875 C 79.5 -202.363281 76.609375 -195.113281 70.828125 -189.21875 C 65.054688 -183.332031 57.414062 -180.390625 47.90625 -180.390625 C 38.382812 -180.390625 30.738281 -183.332031 24.96875 -189.21875 C 19.195312 -195.113281 16.3125 -202.363281 16.3125 -210.96875 Z M 76.78125 -0.34375 C 74.289062 0.113281 70.609375 0.738281 65.734375 1.53125 C 60.867188 2.320312 55.941406 2.71875 50.953125 2.71875 C 45.972656 2.71875 41.5 2.375 37.53125 1.6875 C 33.570312 1.007812 30.234375 -0.34375 27.515625 -2.375 C 24.796875 -4.414062 22.703125 -7.191406 21.234375 -10.703125 C 19.765625 -14.210938 19.03125 -18.796875 19.03125 -24.453125 L 19.03125 -162.71875 C 21.519531 -163.175781 25.195312 -163.800781 30.0625 -164.59375 C 34.9375 -165.382812 39.863281 -165.78125 44.84375 -165.78125 C 49.820312 -165.78125 54.289062 -165.441406 58.25 -164.765625 C 62.21875 -164.085938 65.5625 -162.726562 68.28125 -160.6875 C 71 -158.644531 73.09375 -155.867188 74.5625 -152.359375 C 76.039062 -148.847656 76.78125 -144.265625 76.78125 -138.609375 Z M 76.78125 -0.34375 "/></g></g></g><g fill="#e79f33" fill-opacity="1"><g transform="translate(184.617256, 441.454404)"><g><path d="M 188.546875 -82.546875 C 188.546875 -68.503906 186.394531 -55.988281 182.09375 -45 C 177.789062 -34.019531 171.726562 -24.789062 163.90625 -17.3125 C 156.09375 -9.84375 146.75 -4.179688 135.875 -0.328125 C 125.007812 3.515625 112.894531 5.4375 99.53125 5.4375 C 86.175781 5.4375 74.0625 3.398438 63.1875 -0.671875 C 52.3125 -4.753906 42.96875 -10.585938 35.15625 -18.171875 C 27.34375 -25.765625 21.285156 -34.992188 16.984375 -45.859375 C 12.679688 -56.734375 10.53125 -68.960938 10.53125 -82.546875 C 10.53125 -95.910156 12.679688 -108.023438 16.984375 -118.890625 C 21.285156 -129.765625 27.34375 -138.992188 35.15625 -146.578125 C 42.96875 -154.171875 52.3125 -160.003906 63.1875 -164.078125 C 74.0625 -168.160156 86.175781 -170.203125 99.53125 -170.203125 C 112.894531 -170.203125 125.007812 -168.101562 135.875 -163.90625 C 146.75 -159.71875 156.09375 -153.832031 163.90625 -146.25 C 171.726562 -138.664062 177.789062 -129.4375 182.09375 -118.5625 C 186.394531 -107.6875 188.546875 -95.679688 188.546875 -82.546875 Z M 69.640625 -82.546875 C 69.640625 -68.734375 72.300781 -58.144531 77.625 -50.78125 C 82.945312 -43.425781 90.363281 -39.75 99.875 -39.75 C 109.382812 -39.75 116.6875 -43.484375 121.78125 -50.953125 C 126.882812 -58.429688 129.4375 -68.960938 129.4375 -82.546875 C 129.4375 -96.140625 126.832031 -106.613281 121.625 -113.96875 C 116.414062 -121.332031 109.050781 -125.015625 99.53125 -125.015625 C 90.019531 -125.015625 82.660156 -121.332031 77.453125 -113.96875 C 72.242188 -106.613281 69.640625 -96.140625 69.640625 -82.546875 Z M 69.640625 -82.546875 "/></g></g></g><g fill="#e79f33" fill-opacity="1"><g transform="translate(354.852222, 441.454404)"><g/></g></g><path fill="#44aa00" d="M 81.941406 119.582031 C 135.304688 119.34375 163.949219 144.253906 166.398438 195.828125 C 166.429688 196.476562 167.378906 196.511719 167.46875 195.867188 C 169.851562 179.019531 169.390625 163.664062 165.113281 150.3125 C 150.996094 106.257812 97.15625 100.476562 58.953125 114.417969 C 57.050781 115.113281 56.664062 117.570312 58.246094 118.835938 C 88.046875 142.664062 83.988281 207.695312 156.519531 179.511719 C 145.191406 144.308594 121.96875 122.492188 81.941406 119.582031 " fill-opacity="1" fill-rule="evenodd"/><g clip-path="url(#6ce400647a)"><path fill="#006837" d="M 222.835938 154.589844 C 190.675781 154.445312 173.410156 169.460938 171.933594 200.546875 C 171.914062 200.9375 171.34375 200.957031 171.289062 200.570312 C 169.855469 190.414062 170.132812 181.160156 172.707031 173.113281 C 181.21875 146.558594 213.667969 143.074219 236.695312 151.480469 C 237.84375 151.898438 238.074219 153.378906 237.121094 154.140625 C 219.160156 168.503906 221.605469 207.699219 177.886719 190.710938 C 184.714844 169.492188 198.714844 156.34375 222.835938 154.589844 " fill-opacity="1" fill-rule="evenodd"/></g><g clip-path="url(#82f5bbf05d)"><path fill="#ffd157" d="M 210.664062 229.734375 C 210.664062 231.230469 210.59375 232.722656 210.445312 234.210938 C 210.300781 235.699219 210.078125 237.175781 209.789062 238.640625 C 209.496094 240.109375 209.132812 241.558594 208.699219 242.988281 C 208.265625 244.417969 207.761719 245.824219 207.191406 247.207031 C 206.617188 248.589844 205.980469 249.9375 205.273438 251.257812 C 204.570312 252.574219 203.800781 253.855469 202.972656 255.101562 C 202.140625 256.34375 201.25 257.542969 200.300781 258.699219 C 199.351562 259.855469 198.351562 260.960938 197.292969 262.019531 C 196.234375 263.078125 195.128906 264.078125 193.972656 265.027344 C 192.816406 265.976562 191.617188 266.867188 190.375 267.699219 C 189.128906 268.527344 187.847656 269.296875 186.53125 270 C 185.210938 270.707031 183.863281 271.34375 182.480469 271.917969 C 181.097656 272.488281 179.691406 272.992188 178.261719 273.425781 C 176.832031 273.859375 175.382812 274.222656 173.914062 274.515625 C 172.449219 274.808594 170.972656 275.027344 169.484375 275.171875 C 167.996094 275.320312 166.503906 275.390625 165.007812 275.390625 C 163.511719 275.390625 162.019531 275.320312 160.53125 275.171875 C 159.042969 275.027344 157.566406 274.808594 156.101562 274.515625 C 154.632812 274.222656 153.183594 273.859375 151.753906 273.425781 C 150.324219 272.992188 148.917969 272.488281 147.535156 271.917969 C 146.152344 271.34375 144.804688 270.707031 143.484375 270 C 142.164062 269.296875 140.882812 268.527344 139.640625 267.699219 C 138.398438 266.867188 137.199219 265.976562 136.042969 265.027344 C 134.886719 264.078125 133.78125 263.078125 132.722656 262.019531 C 131.664062 260.960938 130.660156 259.855469 129.714844 258.699219 C 128.765625 257.542969 127.875 256.34375 127.042969 255.101562 C 126.214844 253.855469 125.445312 252.574219 124.742188 251.257812 C 124.035156 249.9375 123.398438 248.589844 122.824219 247.207031 C 122.253906 245.824219 121.75 244.417969 121.316406 242.988281 C 120.882812 241.558594 120.519531 240.109375 120.226562 238.640625 C 119.933594 237.175781 119.714844 235.699219 119.570312 234.210938 C 119.421875 232.722656 119.347656 231.230469 119.347656 229.734375 C 119.347656 228.238281 119.421875 226.746094 119.570312 225.257812 C 119.714844 223.769531 119.933594 222.292969 120.226562 220.828125 C 120.519531 219.359375 120.882812 217.910156 121.316406 216.480469 C 121.75 215.050781 122.253906 213.644531 122.824219 212.261719 C 123.398438 210.878906 124.035156 209.53125 124.742188 208.210938 C 125.445312 206.890625 126.214844 205.609375 127.042969 204.367188 C 127.875 203.125 128.765625 201.925781 129.714844 200.769531 C 130.660156 199.613281 131.664062 198.507812 132.722656 197.449219 C 133.78125 196.390625 134.886719 195.386719 136.042969 194.441406 C 137.199219 193.492188 138.398438 192.601562 139.640625 191.769531 C 140.882812 190.941406 142.164062 190.171875 143.484375 189.46875 C 144.804688 188.761719 146.152344 188.125 147.535156 187.550781 C 148.917969 186.980469 150.324219 186.476562 151.753906 186.042969 C 153.183594 185.609375 154.632812 185.246094 156.101562 184.953125 C 157.566406 184.660156 159.042969 184.441406 160.53125 184.296875 C 162.019531 184.148438 163.511719 184.074219 165.007812 184.074219 C 166.503906 184.074219 167.996094 184.148438 169.484375 184.296875 C 170.972656 184.441406 172.449219 184.660156 173.914062 184.953125 C 175.382812 185.246094 176.832031 185.609375 178.261719 186.042969 C 179.691406 186.476562 181.097656 186.980469 182.480469 187.550781 C 183.863281 188.125 185.210938 188.761719 186.53125 189.46875 C 187.847656 190.171875 189.128906 190.941406 190.375 191.769531 C 191.617188 192.601562 192.816406 193.492188 193.972656 194.441406 C 195.128906 195.386719 196.234375 196.390625 197.292969 197.449219 C 198.351562 198.507812 199.351562 199.613281 200.300781 200.769531 C 201.25 201.925781 202.140625 203.125 202.972656 204.367188 C 203.800781 205.609375 204.570312 206.890625 205.273438 208.210938 C 205.980469 209.53125 206.617188 210.878906 207.191406 212.261719 C 207.761719 213.644531 208.265625 215.050781 208.699219 216.480469 C 209.132812 217.910156 209.496094 219.359375 209.789062 220.828125 C 210.078125 222.292969 210.300781 223.769531 210.445312 225.257812 C 210.59375 226.746094 210.664062 228.238281 210.664062 229.734375 Z M 210.664062 229.734375 " fill-opacity="0.12" fill-rule="nonzero"/></g><path fill="#ffd157" d="M 197.289062 229.734375 C 197.289062 230.792969 197.238281 231.847656 197.132812 232.898438 C 197.03125 233.949219 196.875 234.996094 196.667969 236.03125 C 196.460938 237.070312 196.207031 238.09375 195.898438 239.105469 C 195.59375 240.117188 195.238281 241.109375 194.832031 242.085938 C 194.425781 243.0625 193.976562 244.019531 193.476562 244.953125 C 192.980469 245.882812 192.4375 246.789062 191.847656 247.667969 C 191.261719 248.546875 190.632812 249.394531 189.960938 250.214844 C 189.289062 251.03125 188.582031 251.8125 187.832031 252.5625 C 187.085938 253.308594 186.304688 254.015625 185.488281 254.6875 C 184.667969 255.359375 183.820312 255.988281 182.941406 256.574219 C 182.0625 257.164062 181.15625 257.707031 180.226562 258.203125 C 179.292969 258.703125 178.335938 259.152344 177.359375 259.558594 C 176.382812 259.964844 175.390625 260.320312 174.378906 260.625 C 173.367188 260.933594 172.34375 261.1875 171.304688 261.394531 C 170.269531 261.601562 169.222656 261.757812 168.171875 261.859375 C 167.121094 261.964844 166.066406 262.015625 165.007812 262.015625 C 163.949219 262.015625 162.894531 261.964844 161.84375 261.859375 C 160.789062 261.757812 159.746094 261.601562 158.710938 261.394531 C 157.671875 261.1875 156.648438 260.933594 155.636719 260.625 C 154.625 260.320312 153.628906 259.964844 152.652344 259.558594 C 151.675781 259.152344 150.722656 258.703125 149.789062 258.203125 C 148.855469 257.707031 147.953125 257.164062 147.074219 256.574219 C 146.195312 255.988281 145.34375 255.359375 144.527344 254.6875 C 143.710938 254.015625 142.929688 253.308594 142.179688 252.5625 C 141.433594 251.8125 140.722656 251.03125 140.054688 250.214844 C 139.382812 249.394531 138.753906 248.546875 138.167969 247.667969 C 137.578125 246.789062 137.035156 245.882812 136.539062 244.953125 C 136.039062 244.019531 135.585938 243.0625 135.183594 242.085938 C 134.777344 241.109375 134.421875 240.117188 134.117188 239.105469 C 133.808594 238.09375 133.550781 237.070312 133.347656 236.03125 C 133.140625 234.996094 132.984375 233.949219 132.882812 232.898438 C 132.777344 231.847656 132.726562 230.792969 132.726562 229.734375 C 132.726562 228.675781 132.777344 227.621094 132.882812 226.570312 C 132.984375 225.519531 133.140625 224.472656 133.347656 223.4375 C 133.550781 222.398438 133.808594 221.375 134.117188 220.363281 C 134.421875 219.351562 134.777344 218.355469 135.183594 217.378906 C 135.585938 216.402344 136.039062 215.449219 136.539062 214.515625 C 137.035156 213.585938 137.578125 212.679688 138.167969 211.800781 C 138.753906 210.921875 139.382812 210.070312 140.054688 209.253906 C 140.722656 208.4375 141.433594 207.65625 142.179688 206.90625 C 142.929688 206.160156 143.710938 205.449219 144.527344 204.78125 C 145.34375 204.109375 146.195312 203.480469 147.074219 202.894531 C 147.953125 202.304688 148.855469 201.761719 149.789062 201.265625 C 150.722656 200.765625 151.675781 200.3125 152.652344 199.910156 C 153.628906 199.503906 154.625 199.148438 155.636719 198.84375 C 156.648438 198.535156 157.671875 198.277344 158.710938 198.074219 C 159.746094 197.867188 160.789062 197.710938 161.84375 197.609375 C 162.894531 197.503906 163.949219 197.453125 165.007812 197.453125 C 166.066406 197.453125 167.121094 197.503906 168.171875 197.609375 C 169.222656 197.710938 170.269531 197.867188 171.304688 198.074219 C 172.34375 198.277344 173.367188 198.535156 174.378906 198.84375 C 175.390625 199.148438 176.382812 199.503906 177.359375 199.910156 C 178.335938 200.3125 179.292969 200.765625 180.226562 201.265625 C 181.15625 201.761719 182.0625 202.304688 182.941406 202.894531 C 183.820312 203.480469 184.667969 204.109375 185.488281 204.78125 C 186.304688 205.449219 187.085938 206.160156 187.832031 206.90625 C 188.582031 207.65625 189.289062 208.4375 189.960938 209.253906 C 190.632812 210.070312 191.261719 210.921875 191.847656 211.800781 C 192.4375 212.679688 192.980469 213.585938 193.476562 214.515625 C 193.976562 215.449219 194.425781 216.402344 194.832031 217.378906 C 195.238281 218.355469 195.59375 219.351562 195.898438 220.363281 C 196.207031 221.375 196.460938 222.398438 196.667969 223.4375 C 196.875 224.472656 197.03125 225.519531 197.132812 226.570312 C 197.238281 227.621094 197.289062 228.675781 197.289062 229.734375 Z M 197.289062 229.734375 " fill-opacity="1" fill-rule="nonzero"/><path fill="#ffd157" d="M 177.824219 229.734375 C 177.824219 230.574219 177.742188 231.410156 177.578125 232.234375 C 177.414062 233.058594 177.171875 233.859375 176.847656 234.636719 C 176.527344 235.417969 176.132812 236.15625 175.664062 236.855469 C 175.195312 237.554688 174.664062 238.203125 174.070312 238.796875 C 173.476562 239.390625 172.828125 239.921875 172.128906 240.390625 C 171.429688 240.859375 170.6875 241.253906 169.910156 241.574219 C 169.132812 241.898438 168.332031 242.140625 167.507812 242.304688 C 166.683594 242.46875 165.847656 242.550781 165.007812 242.550781 C 164.164062 242.550781 163.332031 242.46875 162.507812 242.304688 C 161.679688 242.140625 160.878906 241.898438 160.101562 241.574219 C 159.324219 241.253906 158.585938 240.859375 157.886719 240.390625 C 157.1875 239.921875 156.539062 239.390625 155.945312 238.796875 C 155.351562 238.203125 154.820312 237.554688 154.351562 236.855469 C 153.882812 236.15625 153.488281 235.417969 153.167969 234.636719 C 152.84375 233.859375 152.601562 233.058594 152.4375 232.234375 C 152.273438 231.410156 152.191406 230.574219 152.191406 229.734375 C 152.191406 228.890625 152.273438 228.058594 152.4375 227.234375 C 152.601562 226.410156 152.84375 225.605469 153.167969 224.828125 C 153.488281 224.050781 153.882812 223.3125 154.351562 222.613281 C 154.820312 221.914062 155.351562 221.265625 155.945312 220.671875 C 156.539062 220.078125 157.1875 219.546875 157.886719 219.078125 C 158.585938 218.609375 159.324219 218.214844 160.101562 217.894531 C 160.878906 217.570312 161.679688 217.328125 162.507812 217.164062 C 163.332031 217 164.164062 216.917969 165.007812 216.917969 C 165.847656 216.917969 166.683594 217 167.507812 217.164062 C 168.332031 217.328125 169.132812 217.570312 169.910156 217.894531 C 170.6875 218.214844 171.429688 218.609375 172.128906 219.078125 C 172.828125 219.546875 173.476562 220.078125 174.070312 220.671875 C 174.664062 221.265625 175.195312 221.914062 175.664062 222.613281 C 176.132812 223.3125 176.527344 224.050781 176.847656 224.828125 C 177.171875 225.605469 177.414062 226.410156 177.578125 227.234375 C 177.742188 228.058594 177.824219 228.890625 177.824219 229.734375 Z M 177.824219 229.734375 " fill-opacity="1" fill-rule="nonzero"/><path fill="#ffffff" d="M 177.824219 229.734375 C 177.824219 230.574219 177.742188 231.410156 177.578125 232.234375 C 177.414062 233.058594 177.171875 233.859375 176.847656 234.636719 C 176.527344 235.417969 176.132812 236.15625 175.664062 236.855469 C 175.195312 237.554688 174.664062 238.203125 174.070312 238.796875 C 173.476562 239.390625 172.828125 239.921875 172.128906 240.390625 C 171.429688 240.859375 170.6875 241.253906 169.910156 241.574219 C 169.132812 241.898438 168.332031 242.140625 167.507812 242.304688 C 166.683594 242.46875 165.847656 242.550781 165.007812 242.550781 C 164.164062 242.550781 163.332031 242.46875 162.507812 242.304688 C 161.679688 242.140625 160.878906 241.898438 160.101562 241.574219 C 159.324219 241.253906 158.585938 240.859375 157.886719 240.390625 C 157.1875 239.921875 156.539062 239.390625 155.945312 238.796875 C 155.351562 238.203125 154.820312 237.554688 154.351562 236.855469 C 153.882812 236.15625 153.488281 235.417969 153.167969 234.636719 C 152.84375 233.859375 152.601562 233.058594 152.4375 232.234375 C 152.273438 231.410156 152.191406 230.574219 152.191406 229.734375 C 152.191406 228.890625 152.273438 228.058594 152.4375 227.234375 C 152.601562 226.410156 152.84375 225.605469 153.167969 224.828125 C 153.488281 224.050781 153.882812 223.3125 154.351562 222.613281 C 154.820312 221.914062 155.351562 221.265625 155.945312 220.671875 C 156.539062 220.078125 157.1875 219.546875 157.886719 219.078125 C 158.585938 218.609375 159.324219 218.214844 160.101562 217.894531 C 160.878906 217.570312 161.679688 217.328125 162.507812 217.164062 C 163.332031 217 164.164062 216.917969 165.007812 216.917969 C 165.847656 216.917969 166.683594 217 167.507812 217.164062 C 168.332031 217.328125 169.132812 217.570312 169.910156 217.894531 C 170.6875 218.214844 171.429688 218.609375 172.128906 219.078125 C 172.828125 219.546875 173.476562 220.078125 174.070312 220.671875 C 174.664062 221.265625 175.195312 221.914062 175.664062 222.613281 C 176.132812 223.3125 176.527344 224.050781 176.847656 224.828125 C 177.171875 225.605469 177.414062 226.410156 177.578125 227.234375 C 177.742188 228.058594 177.824219 228.890625 177.824219 229.734375 Z M 177.824219 229.734375 " fill-opacity="0.24" fill-rule="nonzero"/><g fill="#006837" fill-opacity="1"><g transform="translate(656.952451, 439.49975)"><g><path d="M 185.578125 -187.09375 C 190.410156 -187.09375 193.882812 -185.582031 196 -182.5625 C 198.113281 -179.550781 199.171875 -175.128906 199.171875 -169.296875 C 199.171875 -166.679688 198.816406 -163.507812 198.109375 -159.78125 C 197.398438 -156.0625 196.546875 -153.296875 195.546875 -151.484375 L 168.390625 -151.484375 L 168.390625 0 C 166.773438 0.601562 163.550781 1.253906 158.71875 1.953125 C 153.894531 2.660156 149.472656 3.015625 145.453125 3.015625 C 136.597656 3.015625 129.957031 1.609375 125.53125 -1.203125 C 121.101562 -4.023438 118.890625 -9.960938 118.890625 -19.015625 L 118.890625 -87.8125 C 115.472656 -88.613281 112.003906 -89.265625 108.484375 -89.765625 C 104.960938 -90.273438 101.390625 -90.53125 97.765625 -90.53125 C 92.742188 -90.53125 88.066406 -90.023438 83.734375 -89.015625 C 79.410156 -88.015625 75.640625 -86.253906 72.421875 -83.734375 C 69.203125 -81.222656 66.632812 -77.953125 64.71875 -73.921875 C 62.8125 -69.898438 61.859375 -64.875 61.859375 -58.84375 C 61.859375 -49.988281 63.867188 -41.789062 67.890625 -34.25 C 71.921875 -26.707031 76.851562 -19.71875 82.6875 -13.28125 C 80.875 -8.65625 77.753906 -4.53125 73.328125 -0.90625 C 68.898438 2.71875 62.863281 4.53125 55.21875 4.53125 C 48.582031 4.53125 42.546875 2.519531 37.109375 -1.5 C 31.679688 -5.53125 27.054688 -10.710938 23.234375 -17.046875 C 19.410156 -23.390625 16.441406 -30.429688 14.328125 -38.171875 C 12.222656 -45.921875 11.171875 -53.617188 11.171875 -61.265625 C 11.171875 -84.191406 17.804688 -101.285156 31.078125 -112.546875 C 44.359375 -123.816406 62.96875 -129.453125 86.90625 -129.453125 C 91.738281 -129.453125 96.96875 -129.148438 102.59375 -128.546875 C 108.226562 -127.941406 113.660156 -127.140625 118.890625 -126.140625 L 118.890625 -151.484375 L 3.015625 -151.484375 C -2.015625 -151.484375 -5.535156 -153.039062 -7.546875 -156.15625 C -9.554688 -159.28125 -10.5625 -163.859375 -10.5625 -169.890625 C -10.5625 -172.304688 -10.257812 -175.320312 -9.65625 -178.9375 C -9.050781 -182.5625 -8.25 -185.28125 -7.25 -187.09375 Z M 185.578125 -187.09375 "/></g></g></g><g fill="#006837" fill-opacity="1"><g transform="translate(845.542844, 439.49975)"><g><path d="M 20.515625 -187.09375 C 20.316406 -203.988281 18.203125 -215.957031 14.171875 -223 C 10.148438 -230.039062 4.421875 -233.5625 -3.015625 -233.5625 C -9.648438 -233.5625 -14.628906 -231.445312 -17.953125 -227.21875 C -21.273438 -223 -22.9375 -217.671875 -22.9375 -211.234375 L -22.9375 -204 C -24.75 -203.1875 -26.757812 -202.476562 -28.96875 -201.875 C -30.78125 -201.269531 -32.890625 -200.765625 -35.296875 -200.359375 C -37.710938 -199.960938 -40.332031 -199.765625 -43.15625 -199.765625 C -51.195312 -199.765625 -58.082031 -201.425781 -63.8125 -204.75 C -69.550781 -208.070312 -72.421875 -214.257812 -72.421875 -223.3125 C -72.421875 -229.539062 -71.007812 -235.625 -68.1875 -241.5625 C -65.375 -247.5 -61.101562 -252.78125 -55.375 -257.40625 C -49.644531 -262.03125 -42.550781 -265.703125 -34.09375 -268.421875 C -25.644531 -271.140625 -15.789062 -272.5 -4.53125 -272.5 C 18.8125 -272.5 36.921875 -265.503906 49.796875 -251.515625 C 62.671875 -237.535156 69.207031 -216.0625 69.40625 -187.09375 L 86.90625 -187.09375 C 91.738281 -187.09375 95.207031 -185.582031 97.3125 -182.5625 C 99.425781 -179.550781 100.484375 -175.128906 100.484375 -169.296875 C 100.484375 -166.679688 100.128906 -163.507812 99.421875 -159.78125 C 98.722656 -156.0625 97.867188 -153.296875 96.859375 -151.484375 L 69.703125 -151.484375 L 69.703125 0.296875 C 68.097656 0.898438 64.878906 1.503906 60.046875 2.109375 C 55.222656 2.710938 50.800781 3.015625 46.78125 3.015625 C 37.925781 3.015625 31.285156 1.660156 26.859375 -1.046875 C 22.429688 -3.765625 20.21875 -9.648438 20.21875 -18.703125 L 20.21875 -151.484375 L 3.015625 -151.484375 C -2.015625 -151.484375 -5.535156 -153.039062 -7.546875 -156.15625 C -9.554688 -159.28125 -10.5625 -163.859375 -10.5625 -169.890625 C -10.5625 -172.304688 -10.257812 -175.320312 -9.65625 -178.9375 C -9.050781 -182.5625 -8.25 -185.28125 -7.25 -187.09375 Z M 20.515625 -187.09375 "/></g></g></g><g clip-path="url(#31d58ffab7)"><path fill="#44aa00" d="M 738.460938 77.195312 C 797.214844 76.929688 828.753906 104.363281 831.453125 161.148438 C 831.488281 161.859375 832.53125 161.898438 832.632812 161.191406 C 835.253906 142.640625 834.746094 125.730469 830.039062 111.03125 C 814.496094 62.523438 755.210938 56.160156 713.148438 71.511719 C 711.050781 72.277344 710.628906 74.980469 712.371094 76.375 C 745.179688 102.609375 740.714844 174.214844 820.574219 143.183594 C 808.101562 104.421875 782.53125 80.402344 738.460938 77.195312 " fill-opacity="1" fill-rule="evenodd"/></g><g clip-path="url(#f78857d056)"><path fill="#006837" d="M 896.195312 108.722656 C 860.785156 108.566406 841.773438 125.097656 840.148438 159.320312 C 840.128906 159.75 839.5 159.773438 839.4375 159.347656 C 837.859375 148.167969 838.164062 137.976562 841.003906 129.117188 C 850.371094 99.882812 886.097656 96.046875 911.449219 105.296875 C 912.714844 105.761719 912.96875 107.390625 911.917969 108.230469 C 892.144531 124.042969 894.835938 167.195312 846.703125 148.496094 C 854.222656 125.132812 869.632812 110.65625 896.195312 108.722656 " fill-opacity="1" fill-rule="evenodd"/></g><g clip-path="url(#08337cad35)"><path fill="#ffd157" d="M 878.96875 228.835938 C 878.96875 230.332031 878.898438 231.824219 878.75 233.3125 C 878.605469 234.796875 878.386719 236.277344 878.09375 237.742188 C 877.800781 239.210938 877.4375 240.660156 877.003906 242.089844 C 876.570312 243.519531 876.066406 244.925781 875.496094 246.308594 C 874.921875 247.691406 874.285156 249.039062 873.578125 250.359375 C 872.875 251.675781 872.105469 252.957031 871.277344 254.203125 C 870.445312 255.445312 869.554688 256.644531 868.605469 257.800781 C 867.65625 258.957031 866.65625 260.0625 865.597656 261.121094 C 864.539062 262.179688 863.433594 263.179688 862.277344 264.128906 C 861.121094 265.078125 859.921875 265.96875 858.679688 266.796875 C 857.433594 267.628906 856.152344 268.398438 854.835938 269.101562 C 853.515625 269.808594 852.167969 270.445312 850.785156 271.019531 C 849.402344 271.589844 847.996094 272.09375 846.566406 272.527344 C 845.136719 272.960938 843.6875 273.324219 842.21875 273.617188 C 840.753906 273.90625 839.277344 274.128906 837.789062 274.273438 C 836.300781 274.421875 834.808594 274.492188 833.3125 274.492188 C 831.816406 274.492188 830.324219 274.421875 828.835938 274.273438 C 827.347656 274.128906 825.871094 273.90625 824.40625 273.617188 C 822.9375 273.324219 821.488281 272.960938 820.058594 272.527344 C 818.628906 272.09375 817.222656 271.589844 815.839844 271.019531 C 814.457031 270.445312 813.109375 269.808594 811.789062 269.101562 C 810.46875 268.398438 809.1875 267.628906 807.945312 266.796875 C 806.703125 265.96875 805.503906 265.078125 804.347656 264.128906 C 803.191406 263.179688 802.085938 262.179688 801.027344 261.121094 C 799.96875 260.0625 798.964844 258.957031 798.019531 257.800781 C 797.070312 256.644531 796.179688 255.445312 795.347656 254.203125 C 794.519531 252.957031 793.75 251.675781 793.046875 250.359375 C 792.339844 249.039062 791.703125 247.691406 791.128906 246.308594 C 790.558594 244.925781 790.054688 243.519531 789.621094 242.089844 C 789.1875 240.660156 788.824219 239.210938 788.53125 237.742188 C 788.238281 236.277344 788.019531 234.796875 787.875 233.3125 C 787.726562 231.824219 787.652344 230.332031 787.652344 228.835938 C 787.652344 227.339844 787.726562 225.847656 787.875 224.359375 C 788.019531 222.871094 788.238281 221.394531 788.53125 219.929688 C 788.824219 218.460938 789.1875 217.011719 789.621094 215.582031 C 790.054688 214.152344 790.558594 212.746094 791.128906 211.363281 C 791.703125 209.980469 792.339844 208.632812 793.046875 207.3125 C 793.75 205.992188 794.519531 204.710938 795.347656 203.46875 C 796.179688 202.226562 797.070312 201.027344 798.019531 199.871094 C 798.964844 198.714844 799.96875 197.609375 801.027344 196.550781 C 802.085938 195.492188 803.191406 194.488281 804.347656 193.542969 C 805.503906 192.59375 806.703125 191.703125 807.945312 190.871094 C 809.1875 190.042969 810.46875 189.273438 811.789062 188.566406 C 813.109375 187.863281 814.457031 187.226562 815.839844 186.652344 C 817.222656 186.082031 818.628906 185.578125 820.058594 185.144531 C 821.488281 184.710938 822.9375 184.347656 824.40625 184.054688 C 825.871094 183.761719 827.347656 183.542969 828.835938 183.398438 C 830.324219 183.25 831.816406 183.175781 833.3125 183.175781 C 834.808594 183.175781 836.300781 183.25 837.789062 183.398438 C 839.277344 183.542969 840.753906 183.761719 842.21875 184.054688 C 843.6875 184.347656 845.136719 184.710938 846.566406 185.144531 C 847.996094 185.578125 849.402344 186.082031 850.785156 186.652344 C 852.167969 187.226562 853.515625 187.863281 854.835938 188.566406 C 856.152344 189.273438 857.433594 190.042969 858.679688 190.871094 C 859.921875 191.703125 861.121094 192.59375 862.277344 193.542969 C 863.433594 194.488281 864.539062 195.492188 865.597656 196.550781 C 866.65625 197.609375 867.65625 198.714844 868.605469 199.871094 C 869.554688 201.027344 870.445312 202.226562 871.277344 203.46875 C 872.105469 204.710938 872.875 205.992188 873.578125 207.3125 C 874.285156 208.632812 874.921875 209.980469 875.496094 211.363281 C 876.066406 212.746094 876.570312 214.152344 877.003906 215.582031 C 877.4375 217.011719 877.800781 218.460938 878.09375 219.929688 C 878.386719 221.394531 878.605469 222.871094 878.75 224.359375 C 878.898438 225.847656 878.96875 227.339844 878.96875 228.835938 Z M 878.96875 228.835938 " fill-opacity="0.12" fill-rule="nonzero"/></g><path fill="#ffd157" d="M 865.59375 228.835938 C 865.59375 229.894531 865.542969 230.949219 865.4375 232 C 865.335938 233.050781 865.179688 234.097656 864.972656 235.132812 C 864.765625 236.171875 864.511719 237.195312 864.203125 238.207031 C 863.898438 239.21875 863.542969 240.210938 863.136719 241.1875 C 862.730469 242.164062 862.28125 243.121094 861.78125 244.054688 C 861.285156 244.984375 860.742188 245.890625 860.152344 246.769531 C 859.566406 247.648438 858.9375 248.496094 858.265625 249.316406 C 857.59375 250.132812 856.886719 250.914062 856.140625 251.660156 C 855.390625 252.410156 854.609375 253.117188 853.792969 253.789062 C 852.972656 254.460938 852.125 255.089844 851.246094 255.675781 C 850.367188 256.265625 849.460938 256.808594 848.53125 257.304688 C 847.597656 257.804688 846.644531 258.253906 845.664062 258.660156 C 844.6875 259.0625 843.695312 259.421875 842.683594 259.726562 C 841.671875 260.035156 840.648438 260.289062 839.609375 260.496094 C 838.574219 260.703125 837.527344 260.859375 836.476562 260.960938 C 835.425781 261.066406 834.371094 261.117188 833.3125 261.117188 C 832.253906 261.117188 831.199219 261.066406 830.148438 260.960938 C 829.097656 260.859375 828.050781 260.703125 827.015625 260.496094 C 825.976562 260.289062 824.953125 260.035156 823.941406 259.726562 C 822.929688 259.421875 821.933594 259.0625 820.957031 258.660156 C 819.980469 258.253906 819.027344 257.804688 818.09375 257.304688 C 817.164062 256.808594 816.257812 256.265625 815.378906 255.675781 C 814.5 255.089844 813.648438 254.460938 812.832031 253.789062 C 812.015625 253.117188 811.234375 252.410156 810.484375 251.660156 C 809.738281 250.914062 809.027344 250.132812 808.359375 249.316406 C 807.6875 248.496094 807.058594 247.648438 806.472656 246.769531 C 805.882812 245.890625 805.339844 244.984375 804.84375 244.054688 C 804.34375 243.121094 803.890625 242.164062 803.488281 241.1875 C 803.082031 240.210938 802.726562 239.21875 802.421875 238.207031 C 802.113281 237.195312 801.855469 236.171875 801.652344 235.132812 C 801.445312 234.097656 801.289062 233.050781 801.1875 232 C 801.082031 230.949219 801.03125 229.894531 801.03125 228.835938 C 801.03125 227.777344 801.082031 226.722656 801.1875 225.671875 C 801.289062 224.617188 801.445312 223.574219 801.652344 222.539062 C 801.855469 221.5 802.113281 220.476562 802.421875 219.464844 C 802.726562 218.453125 803.082031 217.457031 803.488281 216.480469 C 803.890625 215.503906 804.34375 214.550781 804.84375 213.617188 C 805.339844 212.683594 805.882812 211.78125 806.472656 210.902344 C 807.058594 210.023438 807.6875 209.171875 808.359375 208.355469 C 809.027344 207.539062 809.738281 206.757812 810.484375 206.007812 C 811.234375 205.261719 812.015625 204.550781 812.832031 203.882812 C 813.648438 203.210938 814.5 202.582031 815.378906 201.992188 C 816.257812 201.40625 817.164062 200.863281 818.09375 200.367188 C 819.027344 199.867188 819.980469 199.414062 820.957031 199.011719 C 821.933594 198.605469 822.929688 198.25 823.941406 197.945312 C 824.953125 197.636719 825.976562 197.378906 827.015625 197.175781 C 828.050781 196.96875 829.097656 196.8125 830.148438 196.710938 C 831.199219 196.605469 832.253906 196.554688 833.3125 196.554688 C 834.371094 196.554688 835.425781 196.605469 836.476562 196.710938 C 837.527344 196.8125 838.574219 196.96875 839.609375 197.175781 C 840.648438 197.378906 841.671875 197.636719 842.683594 197.945312 C 843.695312 198.25 844.6875 198.605469 845.664062 199.011719 C 846.644531 199.414062 847.597656 199.867188 848.53125 200.367188 C 849.460938 200.863281 850.367188 201.40625 851.246094 201.992188 C 852.125 202.582031 852.972656 203.210938 853.792969 203.882812 C 854.609375 204.550781 855.390625 205.261719 856.140625 206.007812 C 856.886719 206.757812 857.59375 207.539062 858.265625 208.355469 C 858.9375 209.171875 859.566406 210.023438 860.152344 210.902344 C 860.742188 211.78125 861.285156 212.683594 861.78125 213.617188 C 862.28125 214.550781 862.730469 215.503906 863.136719 216.480469 C 863.542969 217.457031 863.898438 218.453125 864.203125 219.464844 C 864.511719 220.476562 864.765625 221.5 864.972656 222.539062 C 865.179688 223.574219 865.335938 224.617188 865.4375 225.671875 C 865.542969 226.722656 865.59375 227.777344 865.59375 228.835938 Z M 865.59375 228.835938 " fill-opacity="1" fill-rule="nonzero"/><path fill="#ffd157" d="M 846.128906 228.835938 C 846.128906 229.675781 846.046875 230.511719 845.882812 231.335938 C 845.71875 232.160156 845.476562 232.960938 845.152344 233.738281 C 844.832031 234.515625 844.4375 235.257812 843.96875 235.957031 C 843.5 236.65625 842.96875 237.304688 842.375 237.898438 C 841.78125 238.492188 841.132812 239.023438 840.433594 239.492188 C 839.734375 239.960938 838.996094 240.355469 838.21875 240.675781 C 837.4375 241 836.636719 241.242188 835.8125 241.40625 C 834.988281 241.570312 834.152344 241.652344 833.3125 241.652344 C 832.472656 241.652344 831.636719 241.570312 830.8125 241.40625 C 829.988281 241.242188 829.183594 241 828.40625 240.675781 C 827.628906 240.355469 826.890625 239.960938 826.191406 239.492188 C 825.492188 239.023438 824.84375 238.492188 824.25 237.898438 C 823.65625 237.304688 823.125 236.65625 822.65625 235.957031 C 822.1875 235.257812 821.792969 234.515625 821.472656 233.738281 C 821.148438 232.960938 820.90625 232.160156 820.742188 231.335938 C 820.578125 230.511719 820.496094 229.675781 820.496094 228.835938 C 820.496094 227.992188 820.578125 227.160156 820.742188 226.335938 C 820.90625 225.507812 821.148438 224.707031 821.472656 223.929688 C 821.792969 223.152344 822.1875 222.414062 822.65625 221.714844 C 823.125 221.015625 823.65625 220.367188 824.25 219.773438 C 824.84375 219.175781 825.492188 218.644531 826.191406 218.179688 C 826.890625 217.710938 827.628906 217.316406 828.40625 216.996094 C 829.183594 216.671875 829.988281 216.429688 830.8125 216.265625 C 831.636719 216.101562 832.472656 216.019531 833.3125 216.019531 C 834.152344 216.019531 834.988281 216.101562 835.8125 216.265625 C 836.636719 216.429688 837.4375 216.671875 838.21875 216.996094 C 838.996094 217.316406 839.734375 217.710938 840.433594 218.179688 C 841.132812 218.644531 841.78125 219.175781 842.375 219.773438 C 842.96875 220.367188 843.5 221.015625 843.96875 221.714844 C 844.4375 222.414062 844.832031 223.152344 845.152344 223.929688 C 845.476562 224.707031 845.71875 225.507812 845.882812 226.335938 C 846.046875 227.160156 846.128906 227.992188 846.128906 228.835938 Z M 846.128906 228.835938 " fill-opacity="1" fill-rule="nonzero"/><path fill="#ffffff" d="M 846.128906 228.835938 C 846.128906 229.675781 846.046875 230.511719 845.882812 231.335938 C 845.71875 232.160156 845.476562 232.960938 845.152344 233.738281 C 844.832031 234.515625 844.4375 235.257812 843.96875 235.957031 C 843.5 236.65625 842.96875 237.304688 842.375 237.898438 C 841.78125 238.492188 841.132812 239.023438 840.433594 239.492188 C 839.734375 239.960938 838.996094 240.355469 838.21875 240.675781 C 837.4375 241 836.636719 241.242188 835.8125 241.40625 C 834.988281 241.570312 834.152344 241.652344 833.3125 241.652344 C 832.472656 241.652344 831.636719 241.570312 830.8125 241.40625 C 829.988281 241.242188 829.183594 241 828.40625 240.675781 C 827.628906 240.355469 826.890625 239.960938 826.191406 239.492188 C 825.492188 239.023438 824.84375 238.492188 824.25 237.898438 C 823.65625 237.304688 823.125 236.65625 822.65625 235.957031 C 822.1875 235.257812 821.792969 234.515625 821.472656 233.738281 C 821.148438 232.960938 820.90625 232.160156 820.742188 231.335938 C 820.578125 230.511719 820.496094 229.675781 820.496094 228.835938 C 820.496094 227.992188 820.578125 227.160156 820.742188 226.335938 C 820.90625 225.507812 821.148438 224.707031 821.472656 223.929688 C 821.792969 223.152344 822.1875 222.414062 822.65625 221.714844 C 823.125 221.015625 823.65625 220.367188 824.25 219.773438 C 824.84375 219.175781 825.492188 218.644531 826.191406 218.179688 C 826.890625 217.710938 827.628906 217.316406 828.40625 216.996094 C 829.183594 216.671875 829.988281 216.429688 830.8125 216.265625 C 831.636719 216.101562 832.472656 216.019531 833.3125 216.019531 C 834.152344 216.019531 834.988281 216.101562 835.8125 216.265625 C 836.636719 216.429688 837.4375 216.671875 838.21875 216.996094 C 838.996094 217.316406 839.734375 217.710938 840.433594 218.179688 C 841.132812 218.644531 841.78125 219.175781 842.375 219.773438 C 842.96875 220.367188 843.5 221.015625 843.96875 221.714844 C 844.4375 222.414062 844.832031 223.152344 845.152344 223.929688 C 845.476562 224.707031 845.71875 225.507812 845.882812 226.335938 C 846.046875 227.160156 846.128906 227.992188 846.128906 228.835938 Z M 846.128906 228.835938 " fill-opacity="0.24" fill-rule="nonzero"/></svg>